# xmcd CD database file
# Copyright (C) 1996 Ti Kan
#
# Track frame offsets:
#  150
#  13420
#  23915
#  36515
#  47852
#  61325
#  73505
#  88442
#  100440
#  115945
#  127577
#
# Disc length: 1847 seconds
#
# Revision: 2
# Processed by: cddbd v1.4b41PL1 Copyright (c) Steve Scherf et al.
# Submitted via: CDWizzard Release:4.12
#
DISCID=9c07350b
DTITLE=Elmore James - King Of The Slide Guitar
DYEAR=1900
DGENRE=
TTITLE0=Dust My Broom
TTITLE1=I Done Somebody Wrong
TTITLE2=The Sky Is Crying
TTITLE3=Look On Yonder Wall
TTITLE4=Standing At The Crossroads
TTITLE5=Mean Mistreatin' Mama
TTITLE6=It Hurts Me Too
TTITLE7=Pickin' The Blues
TTITLE8=I Believe
TTITLE9=Rollin' And Tumblin'
TTITLE10=Coming Home
EXTD=
EXTT0=
EXTT1=
EXTT2=
EXTT3=
EXTT4=
EXTT5=
EXTT6=
EXTT7=
EXTT8=
EXTT9=
EXTT10=
PLAYORDER=
